<svg width="24" height="24" viewBox="0 0 24 24" fill="none" xmlns="http://www.w3.org/2000/svg">
<path d="M12 3V17.5C11.5 17.5 10.5 17 9.5 17C8.5 17 7.5 17.5 7.5 18.5C7.5 19.5 8.5 20 9.5 20C10.5 20 11.5 19.5 12 19.5V6.5C12 5.94772 12.4477 5.5 13 5.5H17C17.5523 5.5 18 5.94772 18 6.5V11.5C17.5 11.5 16.5 11 15.5 11C14.5 11 13.5 11.5 13.5 12.5C13.5 13.5 14.5 14 15.5 14C16.5 14 17.5 13.5 18 13.5V6.5H13V17.5C13 18.0523 12.5523 18.5 12 18.5C11.4477 18.5 11 18.0523 11 17.5V3H12Z" fill="currentColor"/>
</svg>